<?xml version="1.0" encoding="utf-8"?>
<!-- Generated by IcoMoon.io -->
<svg version="1.1" xmlns="http://www.w3.org/2000/svg" xmlns:xlink="http://www.w3.org/1999/xlink" width="880" height="40" viewBox="0 0 880 40">
<svg id="icon-antenna-1" width="40" height="40" viewBox="0 0 40 40" x="0" y="0">
<path fill="#2e2f42" d="M38.466 27.622l-10.554-10.631 1.171-5.769c0.303 0.117 0.624 0.179 0.948 0.181h0.008c0.009 0 0.021 0 0.032 0 1.49 0 2.699-1.208 2.699-2.699s-1.208-2.699-2.699-2.699c-1.49 0-2.699 1.208-2.699 2.699 0 0.324 0.057 0.635 0.162 0.924l-0.006-0.019-6.2 0.756-10.114-10.166c-0.12-0.122-0.286-0.198-0.47-0.2h-0c-0.175 0.001-0.342 0.071-0.467 0.194l-1.891 1.88c-0.121 0.121-0.195 0.287-0.195 0.472s0.075 0.351 0.195 0.472v0l1.018 1.031c-1.429 2.578-2.269 5.652-2.269 8.923 0 5.132 2.070 9.781 5.421 13.157l-0.001-0.001c0.052 0.051 0.114 0.092 0.182 0.122-0.040 0.205-0.064 0.441-0.065 0.683v7.735h-8c-1.84 0.002-3.332 1.493-3.334 3.333v1.333c0 0.369 0.299 0.667 0.667 0.667h30.667c0.368 0 0.667-0.299 0.667-0.667v-1.333c-0.002-1.84-1.494-3.331-3.334-3.333h-8v-3.427c1.253 0.262 2.53 0.397 3.811 0.4 3.225-0.004 6.256-0.829 8.896-2.278l-0.096 0.048 1.023 1.029c0.124 0.126 0.293 0.199 0.471 0.2 0.175-0.001 0.343-0.071 0.466-0.194l1.891-1.881c0.121-0.121 0.195-0.287 0.195-0.471s-0.075-0.351-0.195-0.471v0zM29.1 7.791c0.241-0.239 0.573-0.387 0.94-0.387 0.736 0 1.333 0.597 1.333 1.333s-0.597 1.333-1.333 1.333c-0 0-0 0-0 0h-0.004c-0.733-0.004-1.327-0.599-1.327-1.333 0-0.37 0.15-0.704 0.393-0.946l0-0h-0.002zM27.531 12.172l-0.748 3.681-1.469-1.478 2.218-2.204zM26.773 11.045l-2.4 2.386-1.856-1.867 4.256-0.519zM30.005 36c1.105 0 2 0.895 2 2v0 0.667h-29.333v-0.667c0-1.105 0.895-2 2-2h25.333zM20.672 33.333v1.334h-6.667v-1.334h6.667zM14.005 32v-5.067c0-1.617 1.496-2.933 3.333-2.933s3.334 1.316 3.334 2.933v5.067h-6.667zM22.005 29.88v-2.947c0-2.353-2.094-4.266-4.666-4.266-0.022-0-0.048-0.001-0.074-0.001-1.691 0-3.175 0.883-4.017 2.214l-0.012 0.019c-2.95-3.102-4.764-7.308-4.764-11.937 0-2.893 0.708-5.62 1.961-8.018l-0.046 0.096 23.253 23.386c-2.278 1.184-4.974 1.878-7.833 1.878-1.348 0-2.661-0.154-3.92-0.447l0.117 0.023zM36.116 29.026l-26.321-26.476 0.944-0.94 9.919 9.975c0.004 0 0.007 0.008 0.012 0.012l16.393 16.489-0.946 0.94z"></path>
<path fill="#4d5ae5" d="M17.344 25.333h-0.006c-0.001 0-0.002 0-0.003 0-1.105 0-2 0.895-2 2 0 1.103 0.894 1.998 1.997 2h0.006c0.001 0 0.002 0 0.003 0 1.105 0 2-0.895 2-2 0-1.103-0.894-1.998-1.997-2h-0zM17.811 27.806c-0.12 0.119-0.286 0.193-0.469 0.193-0.368 0-0.667-0.299-0.667-0.667 0-0.001 0-0.002 0-0.003v0c0.002-0.365 0.298-0.661 0.663-0.663h0c0.367 0.002 0.663 0.3 0.663 0.667 0 0.185-0.075 0.352-0.196 0.473l-0 0h0.006z"></path>
</svg>
<svg id="icon-astronaut-1" width="40" height="40" viewBox="0 0 40 40" x="56" y="0">
<path fill="#4d5ae5" d="M39.968 5.655c-0.080-0.239-0.284-0.415-0.534-0.453l-0.004-0-2.389-0.348-1.069-2.164c-0.224-0.456-0.971-0.456-1.195 0l-1.069 2.164-2.388 0.348c-0.325 0.048-0.572 0.325-0.572 0.659 0 0.187 0.077 0.356 0.201 0.477l0 0 1.728 1.684-0.408 2.379c-0.042 0.25 0.060 0.502 0.265 0.652 0.208 0.151 0.478 0.169 0.703 0.051l2.136-1.123 2.136 1.123c0.090 0.048 0.196 0.076 0.309 0.076 0.369 0 0.667-0.299 0.667-0.668 0-0.039-0.003-0.077-0.010-0.115l0.001 0.004-0.407-2.379 1.729-1.684c0.124-0.122 0.201-0.291 0.201-0.478 0-0.073-0.012-0.144-0.034-0.21l0.001 0.005zM36.889 7.314c-0.156 0.152-0.229 0.374-0.191 0.59l0.239 1.393-1.251-0.657c-0.090-0.049-0.197-0.077-0.311-0.077s-0.221 0.029-0.314 0.079l0.004-0.002-1.251 0.657 0.239-1.393c0.006-0.034 0.009-0.073 0.009-0.112 0-0.187-0.077-0.356-0.201-0.478l-0-0-1.012-0.987 1.399-0.203c0.218-0.031 0.405-0.168 0.502-0.365l0.625-1.266 0.626 1.266c0.097 0.197 0.285 0.334 0.503 0.365l1.398 0.203-1.011 0.987zM32.667 25.652h-1.334v1.334h1.334v-1.334zM32.667 28.319h-1.334v1.334h1.334v-1.334z"></path>
<path fill="#4d5ae5" d="M34 26.986h-1.333v1.333h1.333v-1.333zM31.334 26.986h-1.334v1.333h1.334v-1.333zM28 32.986h-1.333v1.333h1.333v-1.333zM28 35.653h-1.333v1.333h1.333v-1.333zM29.334 34.319h-1.334v1.334h1.334v-1.334z"></path>
<path fill="#4d5ae5" d="M26.667 34.319h-1.334v1.334h1.334v-1.334zM20 30.319h-1.333v1.334h1.333v-1.334zM20 32.986h-1.333v1.333h1.333v-1.333zM21.333 31.653h-1.333v1.333h1.333v-1.333zM18.667 31.653h-1.334v1.333h1.334v-1.333zM7.333 7.652h-1.333v1.333h1.333v-1.333zM7.333 10.319h-1.333v1.334h1.333v-1.333zM8.666 8.986h-1.333v1.334h1.333v-1.334zM6 8.986h-1.334v1.334h1.334v-1.334z"></path>
<path fill="#2e2f42" d="M30.894 17.699c-0.35-0.471-0.873-0.796-1.474-0.88l-0.012-0.001c-0.095-0.014-0.205-0.023-0.317-0.023-0.514 0-0.987 0.174-1.363 0.467l0.005-0.004-1.565 1.199-2.372 1.772-1.698-0.676c3.026-1.358 5.142-4.385 5.142-7.9 0-4.779-3.903-8.666-8.701-8.666s-8.702 3.887-8.702 8.666c0 1.732 0.518 3.343 1.4 4.698l-3.461-0.030c-0.011 0-0.019 0.006-0.029 0.006-0.070 0.003-0.136 0.017-0.198 0.040l0.004-0.001c-0.016 0.006-0.032 0.009-0.048 0.017-0.008 0.003-0.016 0.004-0.024 0.008l-4.042 1.996-2.367 1.139c-0.030 0.014-0.056 0.028-0.081 0.045l0.002-0.001c-0.602 0.405-0.993 1.083-0.993 1.853 0 0.371 0.091 0.72 0.251 1.028l-0.006-0.012c0.275 0.536 0.744 0.931 1.32 1.112 0.201 0.066 0.432 0.104 0.671 0.104 0.385 0 0.747-0.098 1.063-0.27l-0.012 0.006 1.735-0.922 2.83-1.462 1.696-0.009-6.803 6.769c0 0.001-0.001 0.001-0.002 0.002l-1.673 1.666c-0.378 0.374-0.613 0.893-0.613 1.466 0 0.002 0 0.004 0 0.007v-0c0 0.556 0.217 1.079 0.613 1.473 0.406 0.404 0.94 0.606 1.474 0.606 0.535 0 1.068-0.202 1.475-0.606l1.643-1.636 2.176-1.625 1.126 1.121-3.877 3.861c-0.378 0.374-0.613 0.893-0.613 1.466 0 0.002 0 0.004 0 0.006v-0c0 0.556 0.218 1.079 0.613 1.474 0.406 0.404 0.941 0.606 1.475 0.606s1.069-0.203 1.475-0.606l4.353-4.333c0-0.001 0-0.002 0.001-0.002l1.262-1.25-0.005-0.004c0.008-0.008 0.019-0.011 0.027-0.019l6.457-7.073 4.339 0.617c0.025 0.003 0.055 0.005 0.085 0.005 0.088 0 0.171-0.017 0.248-0.048l-0.004 0.002c0.022-0.008 0.041-0.019 0.063-0.029 0.024-0.012 0.049-0.019 0.071-0.034l4.017-2.667c0.015-0.010 0.023-0.026 0.037-0.037 0.016-0.012 0.036-0.017 0.050-0.031l1.59-1.489c0.434-0.407 0.704-0.984 0.704-1.624 0-0.5-0.165-0.962-0.444-1.334l0.004 0.006zM2.662 22.212c-0.216 0.116-0.462 0.139-0.697 0.065-0.368-0.116-0.631-0.454-0.631-0.854 0-0.295 0.143-0.556 0.363-0.719l0.002-0.002 1.643-0.79 0.395 1.156 0.166 0.485-1.241 0.659zM7.034 19.928l-1.936 1-0.319-0.934-0.229-0.671 2.533-1.25-0.049 1.854zM25.909 11.652c0 1.148-0.274 2.231-0.749 3.199l-5.227-2.374c-0.054-0.719-0.428-1.341-0.978-1.73l-0.007-0.005 1.83-6.075c2.972 0.944 5.131 3.717 5.131 6.984zM11.173 11.652c0-4.044 3.306-7.334 7.368-7.334 0.316 0 0.625 0.027 0.931 0.066l-1.79 5.942c-0.024 0-0.047-0.007-0.071-0.007-0 0-0.001 0-0.001 0-1.29 0-2.336 1.044-2.339 2.333v0c0.004 1.289 1.050 2.333 2.339 2.333 0 0 0.001 0 0.001 0h-0c0.868 0 1.618-0.479 2.023-1.181l4.828 2.194c-1.344 1.808-3.494 2.987-5.921 2.987-4.063 0-7.368-3.291-7.368-7.334zM18.618 12.652c0 0.551-0.452 1-1.008 1-0.001 0-0.002 0-0.003 0-0.553 0-1.002-0.447-1.005-1v-0c0-0.551 0.452-1 1.008-1s1.008 0.449 1.008 1zM3.081 31.433c-0.137 0.136-0.326 0.219-0.534 0.219s-0.396-0.083-0.533-0.218l0 0c-0.136-0.135-0.221-0.321-0.221-0.528s0.084-0.393 0.22-0.528l0-0 1.203-1.198 1.064 1.059-1.198 1.194zM7.098 36.099c-0.137 0.136-0.326 0.22-0.535 0.22s-0.397-0.084-0.534-0.219l0 0c-0.136-0.135-0.22-0.321-0.22-0.528s0.084-0.393 0.22-0.528l0-0 1.204-1.199 1.065 1.059-1.2 1.194zM11.451 31.764l-0.002 0.001-2.206 2.2-1.064-1.059 2.204-2.195s0.001 0 0.002-0.001c0.050-0.050 0.081-0.11 0.112-0.169 0.008-0.018 0.025-0.033 0.033-0.050 0.021-0.052 0.024-0.107 0.031-0.161 0.004-0.031 0.018-0.059 0.018-0.091 0-0.044-0.016-0.088-0.025-0.132-0.008-0.040-0.008-0.081-0.023-0.119-0.025-0.063-0.069-0.118-0.114-0.172-0.012-0.015-0.017-0.034-0.031-0.047h-0.001l-0.001-0.002-2.009-2c-0.021-0.021-0.049-0.030-0.072-0.048-0.032-0.026-0.067-0.050-0.105-0.070l-0.003-0.002c-0.033-0.016-0.072-0.030-0.113-0.040l-0.004-0.001c-0.037-0.012-0.081-0.021-0.126-0.025l-0.003-0c-0.008-0-0.017-0.001-0.026-0.001-0.033 0-0.065 0.002-0.097 0.007l0.004-0c-0.048 0.004-0.093 0.013-0.135 0.026l0.005-0.001c-0.045 0.016-0.084 0.035-0.12 0.058l0.003-0.002c-0.025 0.014-0.053 0.019-0.076 0.036l-2.217 1.655-1.126-1.121 2.999-2.983 5.45 5.361-1.159 1.149zM19.974 22.992c-0.019-0.003-0.037 0.005-0.056 0.004-0.010-0.001-0.021-0.001-0.032-0.001-0.039 0-0.078 0.003-0.115 0.010l0.004-0.001c-0.038 0.006-0.074 0.014-0.111 0.026-0.046 0.017-0.086 0.037-0.123 0.060l0.002-0.001c-0.037 0.023-0.071 0.047-0.104 0.077-0.016 0.014-0.036 0.021-0.050 0.036l-5.873 6.433-5.41-5.321 3.541-3.523c0.12-0.121 0.195-0.287 0.195-0.471 0-0.369-0.299-0.668-0.668-0.668-0.001 0-0.001 0-0.002 0h0l-2.773 0.016 0.034-2.009 3.88 0.033c1.579 1.621 3.784 2.626 6.223 2.626 0.001 0 0.003 0 0.004 0h-0c0.547 0 1.080-0.056 1.599-0.153 0.050 0.040 0.099 0.081 0.162 0.106l3.012 1.2 0.413 2.054-3.754-0.534zM25.026 23.216l-0.392-1.948 1.808-1.35 1.184 1.571-2.6 1.727zM29.718 19.677l-1.047 0.981-1.164-1.546 1.039-0.796c0.194-0.15 0.438-0.21 0.678-0.179 0.242 0.034 0.455 0.16 0.6 0.355 0.271 0.365 0.225 0.874-0.106 1.184z"></path>
<path fill="#2e2f42" d="M17.003 23.18l-2.679-2.667c-0.12-0.12-0.287-0.194-0.47-0.194s-0.35 0.074-0.47 0.194l-2.678 2.667c-0.121 0.121-0.195 0.288-0.195 0.473s0.075 0.352 0.195 0.473l-0-0 2.678 2.666c0.12 0.12 0.287 0.194 0.47 0.194s0.35-0.074 0.47-0.194l2.679-2.666c0.121-0.121 0.197-0.288 0.197-0.473s-0.075-0.352-0.197-0.473l-0-0zM13.854 25.379l-1.733-1.726 1.733-1.726 1.734 1.726-1.734 1.726zM21.455 6.339l-0.322 1.294c0.089 0.022 2.172 0.565 2.172 2.686h1.333c0-2.521-2.082-3.707-3.183-3.981zM24.639 11.652h-1.333v1.334h1.333v-1.334z"></path>
</svg>
<svg id="icon-clock-1" width="40" height="40" viewBox="0 0 40 40" x="112" y="0">
<path fill="#2e2f42" d="M39.121 19.126c-0.002-10.565-8.569-19.128-19.135-19.126-10.565 0.002-19.128 8.569-19.126 19.135 0.002 8.485 5.528 15.679 13.177 18.182l0.135 0.038c0.075 0.024 0.154 0.036 0.233 0.036 0.151 0 0.299-0.041 0.428-0.117 0.169-0.1 0.295-0.259 0.354-0.446l4.831-15.312c1.317-0.005 2.383-1.074 2.383-2.391 0-1.321-1.071-2.391-2.391-2.391-0.379 0-0.737 0.088-1.056 0.245l0.014-0.006-6.383-6.383c-0.144-0.144-0.343-0.233-0.563-0.233-0.44 0-0.797 0.357-0.797 0.797 0 0.22 0.089 0.419 0.234 0.564v0l6.379 6.386c-0.151 0.301-0.239 0.656-0.239 1.032 0 0.752 0.354 1.421 0.904 1.85l0.005 0.004-4.603 14.591c-9.098-3.351-13.756-13.442-10.404-22.54 3.351-9.096 13.443-13.756 22.54-10.404s13.755 13.443 10.404 22.54c-1.681 4.476-5.005 8.007-9.218 9.922l-0.11 0.045-0.497-2.343c-0.079-0.363-0.398-0.632-0.78-0.632-0.204 0-0.39 0.077-0.531 0.203l0.001-0.001-4.796 4.282c-0.165 0.147-0.268 0.359-0.268 0.596 0 0.354 0.231 0.655 0.551 0.758l0.006 0.002 6.123 1.954c0.073 0.024 0.157 0.038 0.244 0.038 0.44 0 0.797-0.357 0.797-0.797 0-0.059-0.006-0.116-0.019-0.172l0.001 0.005-0.489-2.299c6.91-2.968 11.661-9.715 11.661-17.571 0-0.014 0-0.028-0-0.043v0.002zM19.99 18.329c0.44 0 0.797 0.357 0.797 0.797s-0.357 0.797-0.797 0.797v0c-0.44 0-0.797-0.357-0.797-0.797s0.357-0.797 0.797-0.797v0zM22.616 36.909l2.73-2.435 0.754 3.55-3.484-1.115z"></path>
<path fill="#4d5ae5" d="M19.193 3.981v1.594c0 0.44 0.357 0.797 0.797 0.797s0.797-0.357 0.797-0.797v-1.594c-0.017-0.427-0.368-0.766-0.797-0.766s-0.779 0.339-0.797 0.764l-0 0.002zM4.845 18.329c-0.44 0-0.797 0.357-0.797 0.797s0.357 0.797 0.797 0.797h1.594c0.44 0 0.797-0.357 0.797-0.797s-0.357-0.797-0.797-0.797h-1.594zM35.135 19.924c0.44 0 0.797-0.357 0.797-0.797s-0.357-0.797-0.797-0.797h-1.594c-0.427 0.017-0.766 0.368-0.766 0.797s0.339 0.779 0.764 0.797l0.002 0h1.594z"></path>
</svg>
<svg id="icon-diagram-1" width="40" height="40" viewBox="0 0 40 40" x="168" y="0">
<path fill="#4d5ae5" d="M18.657 18.706h1.332v5.996h-1.332v-5.996zM23.988 21.371h1.332v3.331h-1.332v-3.331zM13.326 23.37h1.333v1.332h-1.333v-1.332zM9.328 22.704h1.333v1.999h-1.333v-1.999z"></path>
<path fill="#2e2f42" d="M1.999 35.364h31.983c0 0 0 0 0.001 0 1.104 0 1.999-0.895 1.999-1.999v0-2.666c0-1.104-0.895-1.999-1.999-1.999-0 0-0 0-0.001 0h-0.666v-16.617l3.785-3.585c0.259 0.131 0.565 0.207 0.889 0.207 1.11 0 2.010-0.9 2.010-2.010s-0.9-2.010-2.010-2.010c-1.11 0-2.010 0.9-2.010 2.010 0 0.308 0.069 0.6 0.193 0.861l-0.005-0.012-2.852 2.703v-1.537c0-1.104-0.895-1.999-1.999-1.999v0h-26.652c-0 0-0 0-0.001 0-1.104 0-1.999 0.895-1.999 1.999 0 0 0 0 0 0.001v-0 19.989h-0.666c-1.104 0-1.999 0.895-1.999 1.999 0 0 0 0 0 0.001v-0 2.666c0 1.104 0.895 1.999 1.999 1.999v0zM37.98 6.046c0.368 0 0.667 0.298 0.667 0.667s-0.298 0.667-0.667 0.667v0c-0.368 0-0.667-0.298-0.667-0.667s0.298-0.667 0.667-0.667v0zM3.998 8.711c0-0.369 0.298-0.667 0.666-0.667h26.652c0.368 0 0.666 0.299 0.666 0.667v2.798l-1.332 1.266v-2.732c0-0.368-0.298-0.666-0.666-0.666h-23.988c-0.368 0-0.666 0.298-0.666 0.666v16.658c0 0.369 0.298 0.667 0.666 0.667h23.988c0.368 0 0.666-0.299 0.666-0.667v-12.093l1.332-1.262v15.354h-27.985v-19.989zM9.995 17.373c-0.002 0-0.004 0-0.006 0-1.104 0-1.999 0.895-1.999 1.999s0.895 1.999 1.999 1.999c0.54 0 1.030-0.214 1.39-0.562l-0.001 0.001 2.316 1.163c0.269 0.134 0.596 0.071 0.796-0.154l4.923-5.539 4.84 3.627c0.26 0.194 0.623 0.174 0.858-0.049l4.206-3.984v10.164h-22.654v-15.325h22.655v3.325l-4.715 4.465-4.881-3.659c-0.11-0.083-0.249-0.133-0.399-0.133-0.198 0-0.375 0.086-0.497 0.223l-0.001 0.001-4.991 5.616-1.866-0.933c0.014-0.080 0.023-0.161 0.026-0.242-0-1.104-0.895-1.998-1.999-1.999h-0zM10.661 19.372c0 0.368-0.298 0.667-0.667 0.667s-0.667-0.298-0.667-0.667v0c0-0.368 0.298-0.667 0.667-0.667s0.667 0.298 0.667 0.667v0zM14.659 30.033h6.663v0.666c0 0.368-0.298 0.666-0.666 0.666h-5.331c-0.368 0-0.666-0.298-0.666-0.666v0-0.666zM1.333 30.7c0-0.368 0.299-0.666 0.666-0.666h11.328v0.666c0 0 0 0 0 0.001 0 1.104 0.895 1.999 1.999 1.999h5.331c1.104 0 1.999-0.895 1.999-1.999 0-0 0-0 0-0.001v0-0.666h11.326c0.369 0 0.667 0.298 0.667 0.666v2.666c0 0.367-0.299 0.666-0.667 0.666h-31.982c-0.368 0-0.666-0.298-0.666-0.666v0-2.666z"></path>
</svg>
<svg id="icon-facebook" width="40" height="40" viewBox="0 0 40 40" x="224" y="0">
<path fill="#e5e5e5" d="M0 0h40v40h-40v-40z"></path>
<path fill="#fff" d="M-300-1724h1440v3468h-1440v-3468z"></path>
<path fill="#f4f4fd" d="M-300-588h1440v780h-1440v-780z"></path>
<path fill="#fff" d="M-144-356h264v424c0 2.209-1.791 4-4 4h-256c-2.209 0-4-1.791-4-4v-424z"></path>
<path fill="#4d5ae5" d="M40 20c0 5.523-2.239 10.523-5.858 14.142s-8.619 5.858-14.142 5.858c-5.523 0-10.523-2.239-14.142-5.858s-5.858-8.619-5.858-14.142c0-5.523 2.239-10.523 5.858-14.142s8.619-5.858 14.142-5.858c5.523 0 10.523 2.239 14.142 5.858s5.858 8.619 5.858 14.142z"></path>
<path fill="#f4f4fd" d="M22.665 14.657h1.461v-2.544c-0.252-0.035-1.119-0.113-2.128-0.113-2.106 0-3.549 1.325-3.549 3.759v2.241h-2.324v2.844h2.324v7.156h2.849v-7.155h2.23l0.354-2.844h-2.585v-1.959c0.001-0.822 0.222-1.385 1.367-1.385z"></path>
</svg>
<svg id="icon-instagram" width="40" height="40" viewBox="0 0 40 40" x="280" y="0">
<path fill="#e5e5e5" d="M0 0h40v40h-40v-40z"></path>
<path fill="#fff" d="M-172-1724h1440v3468h-1440v-3468z"></path>
<path fill="#f4f4fd" d="M-172-588h1440v780h-1440v-780z"></path>
<path fill="#fff" d="M-16-356h264v424c0 2.209-1.791 4-4 4h-256c-2.209 0-4-1.791-4-4v-424z"></path>
<path fill="#4d5ae5" d="M40 20c0 5.523-2.239 10.523-5.858 14.142s-8.619 5.858-14.142 5.858c-5.523 0-10.523-2.239-14.142-5.858s-5.858-8.619-5.858-14.142c0-5.523 2.239-10.523 5.858-14.142s8.619-5.858 14.142-5.858c5.523 0 10.523 2.239 14.142 5.858s5.858 8.619 5.858 14.142z"></path>
<path fill="#f4f4fd" d="M27.984 16.704c-0.038-0.85-0.175-1.435-0.372-1.941-0.203-0.538-0.516-1.019-0.925-1.419-0.4-0.406-0.885-0.722-1.416-0.922-0.509-0.197-1.091-0.334-1.941-0.372-0.856-0.041-1.128-0.050-3.301-0.050s-2.444 0.009-3.297 0.047c-0.85 0.037-1.435 0.175-1.941 0.372-0.538 0.203-1.019 0.516-1.419 0.925-0.406 0.4-0.722 0.884-0.922 1.416-0.197 0.509-0.334 1.091-0.372 1.941-0.041 0.856-0.050 1.128-0.050 3.301s0.009 2.444 0.047 3.297c0.037 0.85 0.175 1.435 0.372 1.941 0.203 0.538 0.519 1.019 0.925 1.419 0.4 0.406 0.885 0.722 1.416 0.922 0.509 0.197 1.091 0.334 1.941 0.372 0.853 0.038 1.125 0.047 3.297 0.047s2.444-0.009 3.297-0.047c0.85-0.038 1.435-0.175 1.941-0.372 1.075-0.416 1.925-1.266 2.341-2.341 0.197-0.509 0.334-1.091 0.372-1.941 0.038-0.853 0.047-1.125 0.047-3.297s-0.003-2.444-0.041-3.298zM26.544 23.236c-0.034 0.781-0.166 1.203-0.275 1.485-0.269 0.697-0.822 1.25-1.519 1.519-0.281 0.109-0.706 0.241-1.485 0.275-0.844 0.038-1.097 0.047-3.232 0.047s-2.391-0.009-3.232-0.047c-0.781-0.034-1.203-0.166-1.485-0.275-0.347-0.128-0.663-0.331-0.919-0.597-0.266-0.259-0.469-0.572-0.597-0.919-0.109-0.281-0.241-0.706-0.275-1.485-0.038-0.844-0.047-1.097-0.047-3.232s0.009-2.391 0.047-3.232c0.034-0.781 0.166-1.203 0.275-1.485 0.128-0.347 0.331-0.663 0.6-0.919 0.259-0.266 0.572-0.469 0.919-0.597 0.281-0.109 0.706-0.241 1.485-0.275 0.844-0.037 1.097-0.047 3.232-0.047 2.138 0 2.391 0.009 3.232 0.047 0.781 0.034 1.203 0.166 1.485 0.275 0.347 0.128 0.663 0.331 0.919 0.597 0.266 0.259 0.469 0.572 0.597 0.919 0.109 0.281 0.241 0.706 0.275 1.485 0.038 0.844 0.047 1.097 0.047 3.232s-0.009 2.385-0.047 3.229z"></path>
<path fill="#f4f4fd" d="M20.030 15.891c-2.269 0-4.11 1.841-4.11 4.11s1.841 4.11 4.11 4.11c2.269 0 4.11-1.841 4.11-4.11s-1.841-4.11-4.11-4.11zM20.030 22.668c-1.472 0-2.666-1.194-2.666-2.666s1.194-2.666 2.666-2.666c1.472 0 2.666 1.194 2.666 2.666s-1.194 2.666-2.666 2.666z"></path>
<path fill="#f4f4fd" d="M25.262 15.729c0 0.53-0.43 0.96-0.96 0.96s-0.96-0.43-0.96-0.96c0-0.53 0.43-0.959 0.96-0.959s0.96 0.429 0.96 0.959z"></path>
</svg>
<svg id="icon-linkedin" width="40" height="40" viewBox="0 0 40 40" x="336" y="0">
<path fill="#e5e5e5" d="M0 0h40v40h-40v-40z"></path>
<path fill="#fff" d="M-364-1724h1440v3468h-1440v-3468z"></path>
<path fill="#f4f4fd" d="M-364-588h1440v780h-1440v-780z"></path>
<path fill="#fff" d="M-208-356h264v424c0 2.209-1.791 4-4 4h-256c-2.209 0-4-1.791-4-4v-424z"></path>
<path fill="#4d5ae5" d="M40 20c0 5.523-2.239 10.523-5.858 14.142s-8.619 5.858-14.142 5.858c-5.523 0-10.523-2.239-14.142-5.858s-5.858-8.619-5.858-14.142c0-5.523 2.239-10.523 5.858-14.142s8.619-5.858 14.142-5.858c5.523 0 10.523 2.239 14.142 5.858s5.858 8.619 5.858 14.142z"></path>
<path fill="#f4f4fd" d="M27.996 28v-0.001h0.004v-5.868c0-2.871-0.618-5.082-3.974-5.082-1.613 0-2.696 0.885-3.138 1.725h-0.047v-1.457h-3.182v10.682h3.313v-5.289c0-1.393 0.264-2.739 1.989-2.739 1.699 0 1.725 1.589 1.725 2.829v5.201h3.31z"></path>
<path fill="#f4f4fd" d="M12.264 17.318h3.317v10.682h-3.317v-10.682z"></path>
<path fill="#f4f4fd" d="M13.921 12c-1.061 0-1.921 0.861-1.921 1.921s0.861 1.939 1.921 1.939 1.921-0.879 1.921-1.939c-0.001-1.061-0.861-1.921-1.921-1.921v0z"></path>
</svg>
<svg id="icon-twitter" width="40" height="40" viewBox="0 0 40 40" x="392" y="0">
<path fill="#e5e5e5" d="M0 0h40v40h-40v-40z"></path>
<path fill="#fff" d="M-236-1724h1440v3468h-1440v-3468z"></path>
<path fill="#f4f4fd" d="M-236-588h1440v780h-1440v-780z"></path>
<path fill="#fff" d="M-80-356h264v424c0 2.209-1.791 4-4 4h-256c-2.209 0-4-1.791-4-4v-424z"></path>
<path fill="#4d5ae5" d="M40 20c0 5.523-2.239 10.523-5.858 14.142s-8.619 5.858-14.142 5.858c-5.523 0-10.523-2.239-14.142-5.858s-5.858-8.619-5.858-14.142c0-5.523 2.239-10.523 5.858-14.142s8.619-5.858 14.142-5.858c5.523 0 10.523 2.239 14.142 5.858s5.858 8.619 5.858 14.142z"></path>
<path fill="#f4f4fd" d="M28 15.039c-0.595 0.261-1.229 0.434-1.89 0.518 0.68-0.406 1.199-1.044 1.443-1.813-0.634 0.378-1.334 0.645-2.080 0.794-0.602-0.641-1.46-1.038-2.396-1.038-1.816 0-3.278 1.474-3.278 3.281 0 0.26 0.022 0.51 0.076 0.748-2.727-0.133-5.14-1.44-6.761-3.431-0.283 0.491-0.449 1.053-0.449 1.658 0 1.136 0.585 2.143 1.457 2.726-0.527-0.010-1.044-0.163-1.482-0.404 0 0.010 0 0.023 0 0.036 0 1.594 1.137 2.918 2.628 3.223-0.267 0.073-0.558 0.108-0.86 0.108-0.21 0-0.422-0.012-0.621-0.056 0.425 1.299 1.631 2.254 3.065 2.285-1.116 0.873-2.533 1.399-4.067 1.399-0.269 0-0.527-0.012-0.785-0.045 1.453 0.937 3.175 1.472 5.032 1.472 6.036 0 9.336-5 9.336-9.334 0-0.145-0.005-0.285-0.012-0.424 0.651-0.462 1.198-1.039 1.644-1.703z"></path>
</svg>
</svg>
